<?xml version="1.0" encoding="UTF-8"?>
<svg id="Layer_1" data-name="Layer 1" xmlns="http://www.w3.org/2000/svg" viewBox="0 0 976.47 579.81">
  <defs>
    <style>
      .cls-1 {
        fill: #01674f;
      }
    </style>
  </defs>
  <polygon class="cls-1" points="853.23 215.84 667.52 215.84 667.52 136.03 623.58 115.48 623.58 579.81 667.52 579.81 667.52 259.19 871.41 259.19 871.41 579.81 915.62 579.81 915.09 242.19 853.23 215.84"/>
  <polygon class="cls-1" points="411.43 151.1 380.87 113.26 61.07 181.06 61.07 413.93 367.1 354.43 368.86 536.46 61.07 536.46 61.07 579.81 411.43 579.81 411.43 300.76 104.43 360.47 104.43 216.18 411.43 151.1"/>
  <polygon class="cls-1" points="523.06 0 455.48 79.68 420.65 38.94 0 126.04 0 579.81 43.54 579.81 43.54 161.48 404.28 86.8 455.61 146.84 534.89 53.37 932.93 236.47 932.93 579.81 976.47 579.81 976.47 208.57 523.06 0"/>
  <polygon class="cls-1" points="566.29 89.5 472.94 202.63 472.94 167.53 428.97 167.53 428.97 579.81 472.94 579.81 472.94 372.5 556.79 579.81 600.44 579.81 476.82 266.34 607.23 108.33 566.29 89.5"/>
</svg>